<svg width="200" height="200" viewBox="0 0 200 200" fill="none" xmlns="http://www.w3.org/2000/svg">
<path d="M100 200C155.228 200 200 155.228 200 100C200 44.7715 155.228 0 100 0C44.7715 0 0 44.7715 0 100C0 155.228 44.7715 200 100 200Z" fill="white"/>
<mask id="mask0_2_2" style="mask-type:alpha" maskUnits="userSpaceOnUse" x="0" y="0" width="200" height="200">
<path d="M100 200C155.228 200 200 155.228 200 100C200 44.7715 155.228 0 100 0C44.7715 0 0 44.7715 0 100C0 155.228 44.7715 200 100 200Z" fill="white"/>
</mask>
<g mask="url(#mask0_2_2)">
<g style="mix-blend-mode:darken">
<path d="M163.802 101.436C162.519 98.4569 161.468 95.2491 160.301 91.6976C154.7 74.8568 147.698 53.8916 116.071 49.3091C87.8294 45.2994 53.0522 63.515 43.5994 100.977C42.4324 105.674 41.7322 110.028 41.6155 114.267C41.6155 114.267 41.6155 114.267 41.6155 114.381C41.6155 114.61 39.1647 135.117 20.259 139.242C-7.39938 145.199 -13.1178 201.648 -12.1842 210.813C-12.0675 212.303 -10.7837 213.448 -9.26662 213.448H147.468C148.402 213.448 149.639 213.227 150.223 212.539C150.806 211.852 150.619 210.813 150.386 210.011C150.386 209.897 147.698 158.717 155.283 149.896C164.619 138.898 171.271 119.078 163.802 101.436ZM143.963 206.804L-6.34907 207.491C-5.76556 199.586 0.41965 149.438 21.426 144.855C32.8628 142.335 39.3981 135.003 43.0159 128.243C44.0662 131.909 45.7 135.232 47.9174 138.096C54.2193 146.459 64.7224 151.156 79.0768 152.073C80.7106 152.187 82.111 150.927 82.2277 149.323C82.3444 147.719 81.0607 146.344 79.4269 146.23C79.1935 146.23 78.9601 146.23 78.7267 146.23C61.2214 141.189 75.5757 134.774 64.1389 125.036C59.1207 120.682 47.5672 109.799 49.3178 102.467C57.837 68.2121 89.4633 51.4858 115.138 55.1519C129.725 57.214 138.361 63.1713 143.963 70.6179C139.995 70.7325 136.844 73.9403 136.844 77.8354C136.844 81.8451 140.112 85.0529 144.196 85.0529C146.764 85.0529 148.981 83.7927 150.265 81.8451C151.899 85.7403 153.299 89.7501 154.583 93.6452C155.75 97.1967 156.917 100.634 158.201 103.841C165.786 121.599 156.45 139.356 150.498 146.344C143.846 154.02 143.613 201.534 143.963 206.804Z" fill="#FFFF00"/>
<path d="M133.693 85.5099C132.526 82.875 131.009 80.3545 128.675 78.407C126.691 76.8031 124.473 76.0012 121.906 76.4594C120.039 76.8031 118.405 77.8342 117.004 79.0944C114.904 81.1565 113.503 83.7915 112.336 86.541C110.703 90.6653 110.002 94.9041 109.886 99.2575C109.769 101.434 109.886 103.611 110.352 105.673C111.169 109.568 112.453 113.234 113.97 116.9C116.421 122.629 119.455 128.013 122.84 133.168C123.073 133.512 123.19 133.627 123.423 133.168C124.94 130.877 126.341 128.586 127.741 126.18C130.425 121.483 132.759 116.786 134.51 111.745C135.793 108.079 136.727 104.298 136.61 100.06C136.61 99.0284 136.494 97.6537 136.377 96.3935C136.027 92.7274 135.21 89.0614 133.693 85.5099Z" fill="#FFFF00"/>
<path d="M92.4974 84.9371C96.5579 84.9371 99.8496 81.706 99.8496 77.7201C99.8496 73.7342 96.5579 70.503 92.4974 70.503C88.4368 70.503 85.1451 73.7342 85.1451 77.7201C85.1451 81.706 88.4368 84.9371 92.4974 84.9371Z" fill="#FFFF00"/>
</g>
<g style="mix-blend-mode:darken">
<path d="M163.752 101.436C162.468 98.4569 161.418 95.2491 160.252 91.6976C154.652 74.8568 147.652 53.8916 116.034 49.3091C87.8007 45.2994 53.0335 63.515 43.5833 100.977C42.4166 105.674 41.7166 110.028 41.6 114.267C41.6 114.267 41.6 114.267 41.6 114.381C41.6 114.61 39.1499 135.117 20.2496 139.242C-7.40078 145.199 -13.1175 201.648 -12.1842 210.813C-12.0675 212.303 -10.7842 213.448 -9.26748 213.448H147.332C148.265 213.448 149.082 213.105 149.665 212.417C150.249 211.73 150.482 210.813 150.249 210.011C150.249 209.897 147.652 158.717 155.235 149.896C164.569 138.898 171.335 119.078 163.752 101.436ZM144.035 206.804L-6.2341 207.491C-5.65076 199.586 0.532659 149.438 21.533 144.855C32.9665 142.335 39.3833 135.117 43.1166 128.358C43.2333 128.702 43.4667 129.045 43.5833 129.389C44.6334 132.597 46.15 135.461 48.0167 138.096C54.3168 146.459 64.817 151.156 79.1672 152.073C80.8006 152.187 82.2006 150.927 82.3173 149.323C82.4339 147.719 81.1506 146.344 79.5172 146.23C75.7838 146.001 72.2838 145.543 69.2504 144.741C64.0003 143.022 61.4336 140.273 59.8002 138.096C54.0835 130.306 61.5503 128.129 55.6002 111.173C51.8668 100.404 66.217 51.1421 115.218 55.1519C129.918 56.2975 138.435 63.1713 144.035 70.6179C140.068 70.7325 136.918 73.9403 136.918 77.8354C136.918 81.8451 140.185 85.0529 144.268 85.0529C146.835 85.0529 149.052 83.7927 150.335 81.8451C151.968 85.7403 153.368 89.7501 154.652 93.6452C155.818 97.1967 156.985 100.634 158.268 103.841C165.852 121.599 156.518 139.356 150.568 146.344C143.918 154.02 143.568 201.534 144.035 206.804Z" fill="#00AEEF"/>
<path d="M133.651 85.5099C132.484 82.875 130.968 80.3545 128.634 78.407C126.651 76.8031 124.434 76.0012 121.867 76.4594C120.001 76.8031 118.367 77.8342 116.967 79.0944C114.867 81.1565 113.467 83.7915 112.301 86.541C110.667 90.6653 109.967 94.9041 109.851 99.2575C109.734 101.434 109.851 103.611 110.317 105.673C111.134 109.568 112.417 113.234 113.934 116.9C116.384 122.629 119.417 128.013 122.801 133.168C123.034 133.512 123.151 133.627 123.384 133.168C124.901 130.877 126.301 128.586 127.701 126.18C130.384 121.483 132.718 116.786 134.468 111.745C135.751 108.079 136.684 104.298 136.568 100.06C136.568 99.0284 136.451 97.6537 136.334 96.3935C135.984 92.7274 135.168 89.0614 133.651 85.5099Z" fill="#00AEEF"/>
<path d="M92.5834 84.9371C96.6427 84.9371 99.9335 81.706 99.9335 77.7201C99.9335 73.7342 96.6427 70.503 92.5834 70.503C88.524 70.503 85.2333 73.7342 85.2333 77.7201C85.2333 81.706 88.524 84.9371 92.5834 84.9371Z" fill="#00AEEF"/>
</g>
<g style="mix-blend-mode:darken">
<path d="M163.802 101.436C162.519 98.4569 161.468 95.2491 160.301 91.6976C154.7 74.8568 147.698 53.8916 116.071 49.3091C87.8294 45.2994 53.0522 63.515 43.5994 100.977C42.4324 105.674 41.7322 110.028 41.6154 114.267C41.6154 114.267 41.6154 114.267 41.6154 114.381C41.6154 114.61 39.1647 135.117 20.259 139.242C-7.39939 145.199 -13.1178 201.648 -12.1842 210.813C-12.0675 212.303 -10.7837 213.448 -9.26662 213.448H147.369C148.303 213.448 149.098 213.02 149.681 212.333C150.265 211.646 150.498 210.011 150.265 209.209C150.265 209.813 147.698 158.717 155.283 149.896C164.619 138.898 171.271 119.078 163.802 101.436ZM143.963 206.804L-6.34907 207.491C-5.76556 199.586 0.41965 149.438 21.426 144.855C32.8628 142.335 39.3981 135.003 43.0159 128.243C44.0662 131.909 45.7 135.232 47.9174 138.096C53.1689 145.199 61.4548 149.552 72.5415 151.271C75.3423 151.844 77.9098 152.073 80.1271 152.073C84.4451 152.073 83.3948 138.783 71.7246 138.554C61.3381 138.325 49.0844 135.117 47.5672 117.245C47.5672 115.412 47.5673 113.579 47.8007 111.632C48.1508 108.653 48.6176 105.56 49.4345 102.352C57.9537 68.0976 89.5799 51.3712 115.254 55.0373C129.842 57.0994 138.478 63.0567 144.08 70.5034C140.112 70.6179 136.961 73.8257 136.961 77.7209C136.961 81.7306 140.229 84.9384 144.313 84.9384C146.881 84.9384 149.098 83.6782 150.382 81.7306C152.016 85.6258 153.416 89.6355 154.7 93.5307C155.867 97.0821 157.034 100.519 158.317 103.727C165.903 121.484 156.567 139.242 150.615 146.23C143.846 154.02 143.496 201.534 143.963 206.804Z" fill="#FF00FF"/>
<path d="M133.693 85.5099C132.526 82.875 131.009 80.3545 128.675 78.407C126.691 76.8031 124.474 76.0012 121.906 76.4594C120.039 76.8031 118.405 77.8342 117.005 79.0944C114.904 81.1565 113.504 83.7915 112.337 86.541C110.703 90.6653 110.003 94.9041 109.886 99.2575C109.769 101.434 109.886 103.611 110.353 105.673C111.17 109.568 112.453 113.234 113.971 116.9C116.421 122.629 119.456 128.013 122.84 133.168C123.073 133.512 123.19 133.627 123.423 133.168C124.94 130.877 126.341 128.586 127.741 126.18C130.425 121.483 132.76 116.786 134.51 111.745C135.794 108.079 136.727 104.298 136.611 100.06C136.611 99.0284 136.494 97.6537 136.377 96.3935C136.027 92.7274 135.21 89.0614 133.693 85.5099Z" fill="#FF00FF"/>
<path d="M92.4977 84.9371C96.5583 84.9371 99.85 81.706 99.85 77.7201C99.85 73.7342 96.5583 70.503 92.4977 70.503C88.4372 70.503 85.1455 73.7342 85.1455 77.7201C85.1455 81.706 88.4372 84.9371 92.4977 84.9371Z" fill="#FF00FF"/>
</g>
</g>
<path fill-rule="evenodd" clip-rule="evenodd" d="M100 193.592C151.69 193.592 193.593 151.689 193.593 100C193.593 48.3107 151.69 6.40763 100 6.40763C48.3098 6.40763 6.40722 48.3107 6.40722 100C6.40722 151.689 48.3098 193.592 100 193.592ZM200 100C200 155.228 155.228 200 100 200C44.7715 200 0 155.228 0 100C0 44.7715 44.7715 0 100 0C155.228 0 200 44.7715 200 100Z" fill="black"/>
<path d="M137.961 51.5034C138.774 51.4825 139.456 52.1135 139.498 52.9258C139.5 52.9651 139.5 53.0036 139.5 53.0412V59.2967C139.511 59.8527 139.255 60.2758 139.111 60.4824C138.935 60.736 138.713 60.9617 138.492 61.1563C138.046 61.5503 137.437 61.9655 136.703 62.3849C135.224 63.2305 133.075 64.1877 130.296 65.0885C124.729 66.8933 116.541 68.5029 105.942 68.5029C94.8138 68.5029 86.4258 66.9809 80.7776 65.2177C77.9591 64.3379 75.7926 63.3886 74.2995 62.5184C73.5584 62.0865 72.9386 61.6484 72.4824 61.2166C72.2549 61.0013 72.0335 60.7552 71.8597 60.4798C71.696 60.2203 71.5 59.8171 71.5 59.3184V53.014C71.5 52.1855 72.1716 51.514 73 51.514C73.64 51.514 74.1864 51.9148 74.4019 52.4792C74.4512 52.5224 74.524 52.5817 74.6267 52.6566C75.0143 52.9392 75.6408 53.3095 76.5091 53.7407C78.2324 54.5966 80.7391 55.6096 83.7788 56.578C89.8621 58.516 97.9368 60.2298 105.934 60.1922L137.961 51.5034ZM137.961 51.5034C137.366 51.5187 136.86 51.8786 136.631 52.3891C136.585 52.4263 136.522 52.4751 136.437 52.5354C136.063 52.8002 135.457 53.1554 134.618 53.5748C132.953 54.4071 130.525 55.4169 127.574 56.3959C121.667 58.3557 113.797 60.1491 105.934 60.1922L137.961 51.5034ZM74.32 52.4008C74.2999 52.3777 74.3064 52.3805 74.3259 52.4073C74.3236 52.4048 74.3216 52.4026 74.32 52.4008ZM136.725 52.3057C136.727 52.3033 136.727 52.3029 136.726 52.3045C136.725 52.3049 136.725 52.3053 136.725 52.3057Z" fill="#101010" stroke="black" stroke-width="3" stroke-linejoin="round"/>
<path d="M105 65C114.45 65 123.04 63.9872 129.298 62.3307C132.419 61.5044 135.017 60.5033 136.859 59.3509C138.648 58.2309 140 56.7866 140 55C140 53.2134 138.648 51.7691 136.859 50.6491C135.017 49.4967 132.419 48.4956 129.298 47.6693C123.04 46.0128 114.45 45 105 45C95.5505 45 86.9604 46.0128 80.7025 47.6693C77.5809 48.4956 74.9828 49.4967 73.1414 50.6491C71.3518 51.7691 70 53.2134 70 55C70 56.7866 71.3518 58.2309 73.1414 59.3509C74.9828 60.5033 77.5809 61.5044 80.7025 62.3307C86.9604 63.9872 95.5505 65 105 65Z" fill="#676767" stroke="black" stroke-width="2"/>
<path d="M76 22.5H74.5V24V51.5942V52.2219L74.9471 52.6626L76 51.5942C74.9471 52.6626 74.9481 52.6635 74.9491 52.6645L74.9512 52.6666L74.9559 52.6712L74.9671 52.682C74.9754 52.69 74.9854 52.6994 74.9971 52.7103C75.0205 52.7321 75.0507 52.7596 75.0881 52.7925C75.1628 52.8582 75.266 52.9452 75.4003 53.0503C75.6688 53.2607 76.061 53.5432 76.5971 53.8728C77.6696 54.5324 79.314 55.3782 81.6907 56.2124C86.443 57.8805 94.116 59.5 106 59.5C117.884 59.5 125.557 57.8805 130.309 56.2124C132.686 55.3782 134.33 54.5324 135.403 53.8728C135.939 53.5432 136.331 53.2607 136.6 53.0503C136.734 52.9452 136.837 52.8582 136.912 52.7925C136.949 52.7596 136.979 52.7321 137.003 52.7103C137.015 52.6994 137.025 52.69 137.033 52.682L137.044 52.6712L137.049 52.6666L137.051 52.6645C137.052 52.6635 137.053 52.6626 136 51.5942L137.053 52.6626L137.5 52.2219V51.5942V24V22.5H136H76Z" fill="#272727" stroke="black" stroke-width="3"/>
<path d="M141.387 22.6669L141.376 22.6641L106.148 13.5478C105.901 13.4841 105.643 13.4841 105.397 13.5477L70.1246 22.664L70.1024 22.6699L53.6024 27.2062C52.9512 27.3852 52.5 27.9772 52.5 28.6525V30.5239C52.5 31.217 52.9748 31.8198 53.6486 31.9822L105.42 44.4583C105.65 44.5137 105.89 44.5139 106.12 44.459L158.349 31.9829C159.024 31.8216 159.5 31.2181 159.5 30.5239V28.6525C159.5 27.973 159.043 27.3784 158.387 27.2032L141.387 22.6669Z" fill="#3E3B3B" stroke="black" stroke-width="3" stroke-linejoin="round"/>
<path d="M106.071 13.5301C105.873 13.4898 105.669 13.49 105.471 13.5306L53.6987 24.146C52.9997 24.2893 52.4985 24.9051 52.5 25.6186C52.5015 26.3321 53.0054 26.9458 53.705 27.0861L105.477 37.4707C105.671 37.5096 105.87 37.5098 106.064 37.4712L158.293 27.0866C158.993 26.9473 159.498 26.333 159.5 25.6186C159.502 24.9041 158.999 24.2877 158.299 24.1454L106.071 13.5301Z" fill="#676767" stroke="black" stroke-width="3" stroke-linejoin="round"/>
<path d="M71.5001 30C74.8751 25.5 100 22.5 100 22.5L105 26C105 26 82.5 29 78.5 31.5C74.5 34 76.0001 38.5 76.0001 38.5C73.8334 38.6667 73 38 72 38C70.4189 38 68.1251 34.5 71.5001 30Z" fill="#FCC90D" stroke="black" stroke-width="3"/>
<path d="M80.1371 66.0001C80.1371 63.8802 79.7977 58.0818 78.6931 52.7792C78.143 50.1383 77.3814 47.5102 76.3165 45.5066C75.2953 43.5852 73.7073 41.7246 71.3265 41.7246C68.7552 41.7246 67.0744 43.7493 66.0099 45.8507C64.9035 48.035 64.153 50.8775 63.638 53.658C63.1188 56.4619 62.8204 59.3091 62.6607 61.5633C62.5041 63.7731 62.4731 65.5233 62.5208 66.1015C62.7279 68.6348 64.502 69.9721 66.267 70.6185C67.9862 71.2482 69.9631 71.348 71.3265 71.348C72.6432 71.348 74.6787 71.2347 76.4361 70.6087C77.322 70.2932 78.2381 69.8126 78.9457 69.0579C79.6852 68.2692 80.1371 67.2412 80.1371 66.0001Z" fill="url(#paint0_linear_2_2)" stroke="black" stroke-width="3"/>
<path d="M72.0277 43.3293C71.8365 43.2877 71.6239 43.2461 71.4114 43.2461C71.0714 43.4333 70.6463 43.7037 70.0938 44.0781C65.6734 46.9484 64.4833 61.8201 64.462 67.3944C65.4224 69.0393 67.3738 69.5706 69.1375 69.7863C69.2225 60.3433 70.4338 45.7004 71.1564 44.2029C71.1351 44.1821 71.6452 43.7037 72.0277 43.3293Z" fill="#FFCD2E"/>
<path d="M77.277 68.4344C78.2971 67.6648 78.6371 66.7496 78.6371 66.0008C78.6371 64.4616 77.9996 43.2461 71.3265 43.2461C70.4126 43.2461 69.6051 43.6413 68.8825 44.3485C68.5 44.8893 71.8153 45.0973 72.8141 46.5948C75.2156 50.1307 77.277 56.7866 77.277 68.2888C77.2983 68.3304 77.277 68.372 77.277 68.4344Z" fill="#D8810E"/>
<path d="M71.3903 46.1792C74.1716 46.1792 76.4819 43.9643 76.4819 41.1643C76.4819 38.3643 74.1716 36.1494 71.3903 36.1494C68.609 36.1494 66.2987 38.3643 66.2987 41.1643C66.2987 43.9643 68.609 46.1792 71.3903 46.1792Z" fill="#FABB12" stroke="black" stroke-width="3"/>
<path d="M72.786 38.002C73.386 38.5869 73.7584 39.4059 73.7584 40.2833C73.7584 42.0967 72.186 43.5786 70.262 43.5786C69.8069 43.5786 69.3931 43.5006 69 43.3446C69.1034 43.4616 69.2276 43.5591 69.3517 43.6566C69.9517 44.105 70.6931 44.502 71.5 44.502C72.3069 44.502 72.9828 44.3139 73.5 44.002C74.5137 43.417 74.9997 42.2527 74.9997 41.0437C75.0204 39.6593 74.0894 38.4699 72.786 38.002Z" fill="#D8810E"/>
<path d="M105.994 26.0517C107.463 26.0517 108.842 25.9018 109.898 25.6321C110.415 25.5002 110.941 25.3183 111.373 25.0569C111.715 24.8498 112.488 24.2926 112.488 23.2763C112.488 22.26 111.715 21.7029 111.373 21.4958C110.941 21.2343 110.415 21.0525 109.898 20.9205C108.842 20.6508 107.463 20.501 105.994 20.501C104.526 20.501 103.147 20.6508 102.09 20.9205C101.573 21.0525 101.048 21.2343 100.615 21.4958C100.273 21.7029 99.5 22.26 99.5 23.2763C99.5 24.2926 100.273 24.8498 100.615 25.0569C101.048 25.3183 101.573 25.5002 102.09 25.6321C103.147 25.9018 104.526 26.0517 105.994 26.0517Z" fill="#676767" stroke="black" stroke-width="3"/>
<defs>
<linearGradient id="paint0_linear_2_2" x1="53.6592" y1="54.6796" x2="84.6978" y2="58.2167" gradientUnits="userSpaceOnUse">
<stop stop-color="#FFF200"/>
<stop offset="0.4571" stop-color="#FBC010"/>
<stop offset="0.8064" stop-color="#F8A01A"/>
<stop offset="1" stop-color="#F7941E"/>
</linearGradient>
</defs>
</svg>
